<svg width="19" height="21" viewBox="0 0 19 21" fill="none" xmlns="http://www.w3.org/2000/svg">
<path d="M13.9893 2.55414V0.994141C13.9893 0.584141 13.6493 0.244141 13.2393 0.244141C12.8293 0.244141 12.4893 0.584141 12.4893 0.994141V2.49414H5.98926V0.994141C5.98926 0.584141 5.64926 0.244141 5.23926 0.244141C4.82926 0.244141 4.48926 0.584141 4.48926 0.994141V2.55414C1.78926 2.80414 0.479258 4.41414 0.279258 6.80414C0.259258 7.09414 0.499258 7.33414 0.779258 7.33414H17.6993C17.9893 7.33414 18.2293 7.08414 18.1993 6.80414C17.9993 4.41414 16.6893 2.80414 13.9893 2.55414Z" fill="#D8E864"/>
<path d="M17.2393 8.83414H1.23926C0.689258 8.83414 0.239258 9.28414 0.239258 9.83414V15.9941C0.239258 18.9941 1.73926 20.9941 5.23926 20.9941H13.2393C16.7393 20.9941 18.2393 18.9941 18.2393 15.9941V9.83414C18.2393 9.28414 17.7893 8.83414 17.2393 8.83414ZM6.44926 17.2041C6.39926 17.2441 6.34926 17.2941 6.29926 17.3241C6.23926 17.3641 6.17926 17.3941 6.11926 17.4141C6.05926 17.4441 5.99926 17.4641 5.93926 17.4741C5.86926 17.4841 5.80926 17.4941 5.73926 17.4941C5.60926 17.4941 5.47926 17.4641 5.35926 17.4141C5.22926 17.3641 5.12926 17.2941 5.02926 17.2041C4.84926 17.0141 4.73926 16.7541 4.73926 16.4941C4.73926 16.2341 4.84926 15.9741 5.02926 15.7841C5.12926 15.6941 5.22926 15.6241 5.35926 15.5741C5.53926 15.4941 5.73926 15.4741 5.93926 15.5141C5.99926 15.5241 6.05926 15.5441 6.11926 15.5741C6.17926 15.5941 6.23926 15.6241 6.29926 15.6641C6.34926 15.7041 6.39926 15.7441 6.44926 15.7841C6.62926 15.9741 6.73926 16.2341 6.73926 16.4941C6.73926 16.7541 6.62926 17.0141 6.44926 17.2041ZM6.44926 13.7041C6.25926 13.8841 5.99926 13.9941 5.73926 13.9941C5.47926 13.9941 5.21926 13.8841 5.02926 13.7041C4.84926 13.5141 4.73926 13.2541 4.73926 12.9941C4.73926 12.7341 4.84926 12.4741 5.02926 12.2841C5.30926 12.0041 5.74926 11.9141 6.11926 12.0741C6.24926 12.1241 6.35926 12.1941 6.44926 12.2841C6.62926 12.4741 6.73926 12.7341 6.73926 12.9941C6.73926 13.2541 6.62926 13.5141 6.44926 13.7041ZM9.94926 17.2041C9.75926 17.3841 9.49926 17.4941 9.23926 17.4941C8.97926 17.4941 8.71926 17.3841 8.52926 17.2041C8.34926 17.0141 8.23926 16.7541 8.23926 16.4941C8.23926 16.2341 8.34926 15.9741 8.52926 15.7841C8.89926 15.4141 9.57926 15.4141 9.94926 15.7841C10.1293 15.9741 10.2393 16.2341 10.2393 16.4941C10.2393 16.7541 10.1293 17.0141 9.94926 17.2041ZM9.94926 13.7041C9.89926 13.7441 9.84926 13.7841 9.79926 13.8241C9.73926 13.8641 9.67926 13.8941 9.61926 13.9141C9.55926 13.9441 9.49926 13.9641 9.43926 13.9741C9.36926 13.9841 9.30926 13.9941 9.23926 13.9941C8.97926 13.9941 8.71926 13.8841 8.52926 13.7041C8.34926 13.5141 8.23926 13.2541 8.23926 12.9941C8.23926 12.7341 8.34926 12.4741 8.52926 12.2841C8.61926 12.1941 8.72926 12.1241 8.85926 12.0741C9.22926 11.9141 9.66926 12.0041 9.94926 12.2841C10.1293 12.4741 10.2393 12.7341 10.2393 12.9941C10.2393 13.2541 10.1293 13.5141 9.94926 13.7041ZM13.4493 17.2041C13.2593 17.3841 12.9993 17.4941 12.7393 17.4941C12.4793 17.4941 12.2193 17.3841 12.0293 17.2041C11.8493 17.0141 11.7393 16.7541 11.7393 16.4941C11.7393 16.2341 11.8493 15.9741 12.0293 15.7841C12.3993 15.4141 13.0793 15.4141 13.4493 15.7841C13.6293 15.9741 13.7393 16.2341 13.7393 16.4941C13.7393 16.7541 13.6293 17.0141 13.4493 17.2041ZM13.4493 13.7041C13.3993 13.7441 13.3493 13.7841 13.2993 13.8241C13.2393 13.8641 13.1793 13.8941 13.1193 13.9141C13.0593 13.9441 12.9993 13.9641 12.9393 13.9741C12.8693 13.9841 12.7993 13.9941 12.7393 13.9941C12.4793 13.9941 12.2193 13.8841 12.0293 13.7041C11.8493 13.5141 11.7393 13.2541 11.7393 12.9941C11.7393 12.7341 11.8493 12.4741 12.0293 12.2841C12.1293 12.1941 12.2293 12.1241 12.3593 12.0741C12.5393 11.9941 12.7393 11.9741 12.9393 12.0141C12.9993 12.0241 13.0593 12.0441 13.1193 12.0741C13.1793 12.0941 13.2393 12.1241 13.2993 12.1641C13.3493 12.2041 13.3993 12.2441 13.4493 12.2841C13.6293 12.4741 13.7393 12.7341 13.7393 12.9941C13.7393 13.2541 13.6293 13.5141 13.4493 13.7041Z" fill="#D8E864"/>
</svg>
