<svg width="21" height="21" viewBox="0 0 21 21" fill="none" xmlns="http://www.w3.org/2000/svg">
<path d="M14.0754 10.515V14.585C14.0754 14.945 14.0354 15.285 13.9454 15.595C13.5754 17.065 12.3554 17.985 10.6754 17.985H7.95535L4.93535 19.995C4.48535 20.305 3.88535 19.975 3.88535 19.435V17.985C2.86535 17.985 2.01535 17.645 1.42535 17.055C0.825352 16.455 0.485352 15.605 0.485352 14.585V10.515C0.485352 8.61499 1.66535 7.30499 3.48535 7.13499C3.61535 7.12499 3.74535 7.11499 3.88535 7.11499H10.6754C12.7154 7.11499 14.0754 8.47499 14.0754 10.515Z" fill="#9D9D9D"/>
<path d="M16.2354 13.715C17.5054 13.715 18.5754 13.295 19.3154 12.545C20.0654 11.805 20.4854 10.735 20.4854 9.46499V4.36499C20.4854 2.01499 18.5854 0.11499 16.2354 0.11499H7.73535C5.38535 0.11499 3.48535 2.01499 3.48535 4.36499V5.11499C3.48535 5.39499 3.70535 5.61499 3.98535 5.61499H10.6754C13.3854 5.61499 15.5754 7.80499 15.5754 10.515V13.215C15.5754 13.495 15.7954 13.715 16.0754 13.715H16.2354Z" fill="#9D9D9D"/>
</svg>
