<svg width="28" height="27" viewBox="0 0 28 27" fill="none" xmlns="http://www.w3.org/2000/svg">
<path d="M13.8352 0.138977C6.47101 0.138977 0.501465 6.10852 0.501465 13.4722C0.501465 20.8358 6.47101 26.8059 13.8352 26.8059C21.1994 26.8059 27.1684 20.8364 27.1684 13.4722C27.1684 6.108 21.1988 0.138977 13.8352 0.138977ZM23.1787 12.6529C23.0254 12.9745 22.3377 12.6218 22.0756 12.5643C21.3102 12.3966 20.4412 12.2692 19.6592 12.2365C19.4267 12.2267 18.4091 12.1967 18.2656 12.2453C18.1672 12.2785 18.1398 12.6389 18.103 12.756C17.8964 13.4121 17.5546 14.0724 17.0144 14.5157C16.8648 14.6384 16.4738 14.9114 16.2925 14.9336C16.2081 14.944 16.1501 14.9637 16.1625 14.8559C16.1837 14.6612 16.3443 14.4577 16.3966 14.2604C16.5639 13.6296 16.3733 12.8658 16.163 12.2598C12.8186 12.466 9.40684 14.2997 8.23851 17.5701C9.07851 17.8203 9.34677 18.7084 9.11787 19.4883C8.90709 19.4195 8.79471 19.2159 8.58342 19.117C8.40682 19.0342 8.20951 19.0191 8.03033 18.9451C7.88429 18.885 7.63623 18.6634 7.48708 18.6639C7.34984 18.6644 6.80245 18.957 6.5404 19.0083C6.01113 19.1124 5.67814 18.915 5.24157 19.0046C4.91686 19.0714 4.73354 19.2838 4.45803 19.4371C4.43162 19.0083 4.79827 18.6929 5.11418 18.4624C5.76566 17.987 6.5896 17.71 7.34673 17.4577C7.69319 14.6726 8.73671 11.7311 10.8781 9.82945C11.0723 9.65752 11.5063 9.41567 11.6399 9.27067C12.3085 8.54409 10.4126 7.83512 10.4141 7.7072C11.0552 7.40165 11.9947 7.40373 12.6824 7.56064C13.2407 7.68804 14.033 8.20643 14.4929 8.24061C15.1019 8.28567 15.8901 8.1593 16.5494 8.1997C18.6136 8.32606 21.8472 9.18677 22.1792 11.6063C22.3775 11.6767 23.0855 11.9812 23.1782 12.135C23.2284 12.2189 23.2227 12.5607 23.1782 12.6529H23.1787Z" fill="#A1CAE0"/>
</svg>
