<svg width="152" height="158" viewBox="0 0 152 158" fill="none" xmlns="http://www.w3.org/2000/svg">
<g opacity="0.4">
<circle cx="44.963" cy="78.453" r="102.691" fill="url(#paint0_linear_274_986)" stroke="url(#paint1_linear_274_986)" stroke-width="8.63655"/>
<path d="M45.1905 123.659C39.1136 123.659 33.7859 122.618 29.2074 120.537C24.6289 118.372 21.0077 115.251 18.3438 111.172C15.68 107.093 14.1815 102.14 13.8486 96.3124H27.5841C28.0003 100.641 29.7068 104.262 32.7037 107.176C35.7838 110.09 39.946 111.546 45.1905 111.546C50.435 111.546 54.5973 110.09 57.6773 107.176C60.7574 104.262 62.2975 100.225 62.2975 95.0637C62.2975 89.9025 60.7158 85.99 57.5525 83.3261C54.3891 80.579 50.3101 79.2055 45.3154 79.2055C43.5672 79.2055 41.9023 79.4552 40.3206 79.9547C38.8222 80.3709 37.3654 80.9952 35.9503 81.8277L27.9587 72.4626L55.6795 46.7397H16.8454V34.7523H73.161V46.3651L49.1863 68.7165C53.2653 68.7998 56.9281 69.5073 60.1747 70.8393C63.4213 72.1712 66.21 74.0026 68.5409 76.3335C70.955 78.6644 72.7864 81.4115 74.0351 84.5748C75.2838 87.7381 75.9081 91.1928 75.9081 94.9389C75.9081 100.933 74.6178 106.094 72.0372 110.423C69.4566 114.751 65.8354 118.04 61.1737 120.287C56.5952 122.535 51.2674 123.659 45.1905 123.659Z" fill="url(#paint2_linear_274_986)"/>
</g>
<defs>
<linearGradient id="paint0_linear_274_986" x1="44.963" y1="-28.5559" x2="44.963" y2="185.462" gradientUnits="userSpaceOnUse">
<stop stop-color="#4D5612"/>
<stop offset="1" stop-color="#2C3008" stop-opacity="0"/>
</linearGradient>
<linearGradient id="paint1_linear_274_986" x1="44.963" y1="-28.5559" x2="44.963" y2="185.462" gradientUnits="userSpaceOnUse">
<stop stop-color="#D8E864"/>
<stop offset="1" stop-color="#798238" stop-opacity="0"/>
</linearGradient>
<linearGradient id="paint2_linear_274_986" x1="45.2295" y1="35.1602" x2="45.2295" y2="122.16" gradientUnits="userSpaceOnUse">
<stop stop-color="#D8E864"/>
<stop offset="1" stop-color="#798238" stop-opacity="0"/>
</linearGradient>
</defs>
</svg>
