<svg width="152" height="158" viewBox="0 0 152 158" fill="none" xmlns="http://www.w3.org/2000/svg">
<g opacity="0.4">
<circle cx="44.963" cy="79.453" r="102.691" fill="url(#paint0_linear_274_982)" stroke="url(#paint1_linear_274_982)" stroke-width="8.63655"/>
<path d="M15.7216 123.16V112.421C15.7216 112.421 16.1794 111.922 17.0951 110.923C18.0941 109.841 19.426 108.467 21.0909 106.802C22.7558 105.054 24.6289 103.098 26.71 100.934C28.7911 98.7692 30.9139 96.5632 33.0783 94.3156C35.3259 91.9847 37.4903 89.7371 39.5714 87.5727C43.0678 83.9931 46.2311 80.6633 49.0614 77.5832C51.975 74.5031 54.3059 71.5895 56.0541 68.8424C57.8022 66.0953 58.6763 63.3899 58.6763 60.726C58.6763 56.3972 57.4692 52.9009 55.0551 50.2371C52.641 47.5732 49.1863 46.2413 44.691 46.2413C41.4445 46.2413 38.6974 46.9905 36.4497 48.4889C34.2021 49.9873 32.4956 51.9852 31.3301 54.4826C30.2479 56.8967 29.7068 59.6022 29.7068 62.599H15.9713C16.0546 56.6053 17.3033 51.5274 19.7174 47.3651C22.2147 43.1196 25.6278 39.873 29.9566 37.6254C34.2853 35.3777 39.2801 34.2539 44.9408 34.2539C51.101 34.2539 56.2206 35.3777 60.2996 37.6254C64.3786 39.873 67.4587 42.9531 69.5398 46.8656C71.621 50.7782 72.6615 55.315 72.6615 60.4763C72.6615 64.472 71.7458 68.2181 69.9144 71.7144C68.083 75.1275 65.7105 78.4157 62.7969 81.579C59.8834 84.7423 56.8033 87.9473 53.5567 91.1939C51.5588 93.1085 49.6025 95.0232 47.6879 96.9378C45.8565 98.8525 44.1083 100.684 42.4434 102.432C40.7785 104.097 39.3217 105.595 38.073 106.927C36.8243 108.259 35.8254 109.3 35.0762 110.049C34.327 110.798 33.9524 111.173 33.9524 111.173H75.034V123.16H15.7216Z" fill="url(#paint2_linear_274_982)"/>
</g>
<defs>
<linearGradient id="paint0_linear_274_982" x1="44.963" y1="-27.5559" x2="44.963" y2="186.462" gradientUnits="userSpaceOnUse">
<stop stop-color="#4D5612"/>
<stop offset="1" stop-color="#2C3008" stop-opacity="0"/>
</linearGradient>
<linearGradient id="paint1_linear_274_982" x1="44.963" y1="-27.5559" x2="44.963" y2="186.462" gradientUnits="userSpaceOnUse">
<stop stop-color="#D8E864"/>
<stop offset="1" stop-color="#798238" stop-opacity="0"/>
</linearGradient>
<linearGradient id="paint2_linear_274_982" x1="45.2295" y1="36.1602" x2="45.2295" y2="123.16" gradientUnits="userSpaceOnUse">
<stop stop-color="#D8E864"/>
<stop offset="1" stop-color="#798238" stop-opacity="0"/>
</linearGradient>
</defs>
</svg>
