<svg width="134" height="31" viewBox="0 0 134 31" fill="none" xmlns="http://www.w3.org/2000/svg">
<path d="M19.986 25.5299C19.8524 25.9424 19.6485 26.3362 19.4422 26.7277C19.2335 26.3362 19.0296 25.9424 18.896 25.5299C18.3639 23.8843 17.656 19.039 19.0741 17.8622C19.1773 17.7778 19.3062 17.7192 19.4422 17.6747C19.5758 17.7192 19.7047 17.7778 19.8079 17.8622C21.2261 19.039 20.5181 23.8843 19.986 25.5299Z" fill="#D8E864"/>
<path d="M30.4924 9.69999C32.3161 11.5237 32.3161 14.482 30.4924 16.3057C28.6686 18.1295 25.7104 18.1295 23.8866 16.3057L25.197 14.9954C26.2964 16.0948 28.0826 16.0948 29.1797 14.9954C30.2767 13.896 30.2791 12.1098 29.1797 11.0127L30.4924 9.69999Z" fill="#D8E864"/>
<path d="M8.38728 9.69999C6.56355 11.5237 6.56355 14.482 8.38728 16.3057C10.211 18.1295 13.1693 18.1295 14.993 16.3057L13.6827 14.9954C12.5833 16.0948 10.797 16.0948 9.69999 14.9954C8.60294 13.896 8.6006 12.1098 9.69999 11.0127L8.38728 9.69999Z" fill="#D8E864"/>
<path d="M37.5224 3.39429C37.4075 3.42945 37.295 3.46227 37.1802 3.49743C35.3541 4.0694 33.6054 4.81249 31.9528 5.71498C28.8304 2.10502 24.2781 0 19.4469 0H19.4328C14.6016 0 10.0493 2.10502 6.92689 5.71498C5.27428 4.81249 3.52556 4.0694 1.69949 3.49743C1.58463 3.46227 1.47211 3.42945 1.35725 3.39429C0.90952 3.26068 0.457104 3.13644 0 3.02627C0.0140647 3.07549 0.0304736 3.12706 0.0492266 3.17863C0.180498 3.57479 0.318801 3.96626 0.468825 4.35304C1.34318 6.65731 2.50587 8.82329 3.90766 10.8041C3.13175 12.2645 2.2363 14.414 2.88562 16.7581C2.89499 16.7957 2.90671 16.8332 2.91609 16.8707L2.95125 16.9832C3.42242 18.46 4.47962 19.8946 6.17911 21.3597C6.39712 21.5495 6.63153 21.7418 6.87766 21.934C6.99018 22.0231 7.10973 22.1168 7.241 22.2153C7.50823 22.4169 7.74733 22.5903 7.97237 22.7474C8.30289 22.9795 8.67092 23.2256 9.09755 23.5022C9.36712 23.6757 9.62029 23.8351 9.86408 23.9827C10.2462 24.2172 10.6376 24.4516 11.0315 24.6813C11.2002 24.7797 11.3737 24.8805 11.5472 24.979L11.8003 25.1267C12.0207 25.2533 12.241 25.3798 12.459 25.5041C12.6301 25.6025 12.7989 25.6986 12.97 25.7971C13.1341 25.8909 13.3053 25.9893 13.4834 26.0925C13.6592 26.1933 13.8421 26.3011 14.0272 26.4089C14.1515 26.4816 14.2757 26.5542 14.4023 26.6293L14.8782 26.9152C15.1946 27.1051 15.5134 27.302 15.8228 27.5013L15.8275 27.506H15.8346C16.2987 27.8013 16.7441 28.1014 17.1707 28.4038C17.3395 28.5233 17.5083 28.6475 17.6911 28.7882C17.8013 28.8702 17.9115 28.9546 18.024 29.0437C18.1951 29.175 18.3615 29.3086 18.5186 29.4446L19.4398 30.2322L20.3611 29.4446C20.5181 29.3086 20.6846 29.175 20.8557 29.0437C20.9682 28.9546 21.0784 28.8702 21.1885 28.7882C21.3714 28.6475 21.5402 28.5233 21.7089 28.4038C22.1356 28.1014 22.581 27.8013 23.0451 27.5083H23.0521L23.0568 27.5013C23.3662 27.302 23.685 27.1051 24.0015 26.9152L24.4774 26.6293C24.6039 26.5542 24.7282 26.4816 24.8524 26.4089C25.0376 26.3011 25.2204 26.1933 25.3962 26.0925C25.5744 25.9893 25.7455 25.8909 25.9096 25.7971C26.0807 25.6986 26.2495 25.6025 26.4206 25.5041C26.6386 25.3798 26.859 25.2533 27.0793 25.1267L27.3325 24.979C27.506 24.8805 27.6794 24.7797 27.8482 24.6813C28.242 24.4516 28.6335 24.2172 29.0156 23.9827C29.2594 23.8351 29.5125 23.6757 29.7821 23.5022C30.2087 23.2256 30.5768 22.9795 30.9073 22.7474C31.1323 22.5903 31.3714 22.4169 31.6387 22.2153C31.7699 22.1168 31.8895 22.0231 32.002 21.934C32.2481 21.7418 32.4825 21.5495 32.7005 21.3597C34.4 19.8946 35.4572 18.46 35.9284 16.9832L35.9636 16.8707C35.9729 16.8332 35.9847 16.7957 35.994 16.7581C36.6434 14.414 35.7479 12.2645 34.972 10.8041C36.3738 8.82329 37.5365 6.65731 38.4108 4.35304C38.5609 3.96626 38.6992 3.57479 38.8304 3.17863C38.8492 3.12706 38.8656 3.07549 38.8797 3.02627C38.4225 3.13644 37.9701 3.26068 37.5224 3.39429ZM19.4328 1.40647H19.4469C23.9194 1.40647 27.9396 3.34741 30.7104 6.43228C26.8941 8.76234 23.6593 11.9433 21.2659 15.715C20.7619 15.3306 20.1313 15.0985 19.4515 15.0915H19.4281C18.7483 15.0985 18.1177 15.3306 17.6138 15.715C15.2204 11.9433 11.9855 8.76234 8.16927 6.43228C10.94 3.34741 14.9602 1.40647 19.4328 1.40647ZM35.4783 7.84344C35.1197 8.47167 34.7376 9.08348 34.3274 9.68358C34.0414 10.1055 33.7437 10.5181 33.4296 10.926C33.5163 11.0736 33.5983 11.219 33.6757 11.3643C33.8046 11.6011 33.9218 11.8331 34.0297 12.0605C34.7985 13.692 35.04 15.1313 34.5876 16.5566C34.1984 17.7778 33.2983 18.9874 31.7793 20.2978C31.5683 20.4806 31.3503 20.6588 31.1276 20.8322C31.0175 20.9213 30.9049 21.008 30.7924 21.0924C30.565 21.2636 30.3353 21.4323 30.1009 21.5964C29.7493 21.8426 29.3859 22.084 29.0203 22.3208C28.7765 22.4778 28.5303 22.6325 28.2795 22.7849C27.9045 23.0146 27.5247 23.242 27.1403 23.467C26.8871 23.6147 26.6293 23.7624 26.3737 23.9101C25.9846 24.1351 25.5955 24.3555 25.2087 24.5781C24.5641 24.9485 23.9171 25.3236 23.2818 25.7057C23.2818 25.7057 23.2811 25.7057 23.2795 25.7057C22.9466 25.9049 22.6185 26.1089 22.295 26.3175C21.8191 26.6175 21.3526 26.9293 20.9002 27.2528C20.7103 27.3864 20.5252 27.5224 20.34 27.663C20.2251 27.7498 20.1102 27.8388 19.9954 27.9279C19.8102 28.0709 19.625 28.2209 19.4469 28.3733L19.4398 28.3663L19.4328 28.3733C19.2546 28.2209 19.0695 28.0709 18.8843 27.9279C18.7694 27.8388 18.6545 27.7498 18.5397 27.663C18.3545 27.5224 18.1693 27.3864 17.9794 27.2528C17.527 26.9293 17.0605 26.6175 16.5847 26.3175C16.2612 26.1089 15.933 25.9049 15.6002 25.7057C15.6002 25.7057 15.5994 25.7057 15.5978 25.7057C14.9625 25.3236 14.3156 24.9485 13.6709 24.5781C13.2842 24.3555 12.895 24.1351 12.5059 23.9101C12.2504 23.7624 11.9925 23.6147 11.7394 23.467C11.3549 23.242 10.9752 23.0146 10.6001 22.7849C10.3493 22.6325 10.1032 22.4778 9.85939 22.3208C9.49371 22.084 9.13037 21.8426 8.77875 21.5964C8.54433 21.4323 8.31461 21.2636 8.08723 21.0924C7.97471 21.008 7.86219 20.9213 7.75202 20.8322C7.52933 20.6588 7.31133 20.4806 7.10035 20.2978C5.58136 18.9874 4.68122 17.7778 4.29209 16.5566C3.83968 15.1313 4.08112 13.692 4.84999 12.0605C4.95782 11.8331 5.07503 11.6011 5.20396 11.3643C5.28131 11.219 5.36336 11.0736 5.45009 10.926C5.13598 10.5181 4.83827 10.1055 4.55229 9.68358C4.14207 9.08348 3.75998 8.47167 3.40133 7.84344C2.83405 6.85657 2.3324 5.83453 1.89405 4.7867C5.94939 6.14161 9.66483 8.42947 12.7755 11.5401C14.332 13.0943 15.6822 14.8008 16.8097 16.6269C17.0816 17.0652 17.3395 17.5083 17.5833 17.9607C17.6349 17.4684 17.874 17.0324 18.2256 16.7253C18.5537 16.4417 18.978 16.2682 19.4398 16.2635C19.9016 16.2682 20.3259 16.4417 20.6541 16.7253C21.0057 17.0324 21.2448 17.4684 21.2964 17.9607C21.5402 17.5083 21.798 17.0652 22.0699 16.6269C23.1975 14.8008 24.5477 13.0943 26.1042 11.5401C29.2148 8.42947 32.9303 6.14161 36.9856 4.7867C36.5472 5.83453 36.0456 6.85657 35.4783 7.84344Z" fill="#D8E864"/>
<mask id="path-2-outside-1_360_2" maskUnits="userSpaceOnUse" x="43.846" y="9.49911" width="90" height="11" fill="black">
<rect fill="white" x="43.846" y="9.49911" width="90" height="11"/>
<path d="M58.7842 11.5872H46.0936V14.1016H57.5336V15.4181H46.0936V19.4991H44.7771V10.2839H58.7842V11.5872ZM62.3102 19.4991H60.9937V10.2839H62.3102V19.4991ZM66.4929 19.4991H65.1896V10.2839H66.4139L77.9197 17.7219V10.2839H79.2362V19.4991H78.262L66.4929 11.9032V19.4991ZM94.3431 19.4991H86.2469C85.0226 19.4991 83.8641 19.012 83.0216 18.13C81.2707 16.3265 81.2707 13.4566 83.0216 11.653C83.8641 10.7842 85.0226 10.2839 86.2469 10.2839H94.3431C95.5674 10.2839 96.7259 10.7842 97.5684 11.653C99.3193 13.4566 99.3193 16.3265 97.5684 18.13C96.7259 19.012 95.5674 19.4991 94.3431 19.4991ZM86.2469 18.2221H94.3431C95.1988 18.2221 96.015 17.8799 96.6206 17.2611C97.8844 15.9447 97.8844 13.8384 96.6206 12.5219C96.015 11.9032 95.1988 11.5609 94.3431 11.5609H86.2469C85.3912 11.5609 84.575 11.9032 83.9694 12.5219C82.7056 13.8384 82.7056 15.9447 83.9694 17.2611C84.575 17.8799 85.3912 18.2221 86.2469 18.2221ZM99.9569 10.2839H101.418L104.92 17.1953L108.435 10.8368L111.95 17.1953L115.438 10.2839H116.913L112.253 19.4991H111.713L108.435 13.5487L105.144 19.4991H104.617L99.9569 10.2839ZM119.008 10.2971H120.311V18.1827H132.791V19.4991H119.008V10.2971Z"/>
</mask>
<path d="M58.7842 11.5872H46.0936V14.1016H57.5336V15.4181H46.0936V19.4991H44.7771V10.2839H58.7842V11.5872ZM62.3102 19.4991H60.9937V10.2839H62.3102V19.4991ZM66.4929 19.4991H65.1896V10.2839H66.4139L77.9197 17.7219V10.2839H79.2362V19.4991H78.262L66.4929 11.9032V19.4991ZM94.3431 19.4991H86.2469C85.0226 19.4991 83.8641 19.012 83.0216 18.13C81.2707 16.3265 81.2707 13.4566 83.0216 11.653C83.8641 10.7842 85.0226 10.2839 86.2469 10.2839H94.3431C95.5674 10.2839 96.7259 10.7842 97.5684 11.653C99.3193 13.4566 99.3193 16.3265 97.5684 18.13C96.7259 19.012 95.5674 19.4991 94.3431 19.4991ZM86.2469 18.2221H94.3431C95.1988 18.2221 96.015 17.8799 96.6206 17.2611C97.8844 15.9447 97.8844 13.8384 96.6206 12.5219C96.015 11.9032 95.1988 11.5609 94.3431 11.5609H86.2469C85.3912 11.5609 84.575 11.9032 83.9694 12.5219C82.7056 13.8384 82.7056 15.9447 83.9694 17.2611C84.575 17.8799 85.3912 18.2221 86.2469 18.2221ZM99.9569 10.2839H101.418L104.92 17.1953L108.435 10.8368L111.95 17.1953L115.438 10.2839H116.913L112.253 19.4991H111.713L108.435 13.5487L105.144 19.4991H104.617L99.9569 10.2839ZM119.008 10.2971H120.311V18.1827H132.791V19.4991H119.008V10.2971Z" fill="white"/>
<path d="M58.7842 11.5872V12.026H59.223V11.5872H58.7842ZM46.0936 11.5872V11.1484H45.6548V11.5872H46.0936ZM46.0936 14.1016H45.6548V14.5405H46.0936V14.1016ZM57.5336 14.1016H57.9724V13.6628H57.5336V14.1016ZM57.5336 15.4181V15.8569H57.9724V15.4181H57.5336ZM46.0936 15.4181V14.9793H45.6548V15.4181H46.0936ZM46.0936 19.4991V19.9379H46.5324V19.4991H46.0936ZM44.7771 19.4991H44.3383V19.9379H44.7771V19.4991ZM44.7771 10.2839V9.8451H44.3383V10.2839H44.7771ZM58.7842 10.2839H59.223V9.8451H58.7842V10.2839ZM58.7842 11.1484H46.0936V12.026H58.7842V11.1484ZM45.6548 11.5872V14.1016H46.5324V11.5872H45.6548ZM46.0936 14.5405H57.5336V13.6628H46.0936V14.5405ZM57.0948 14.1016V15.4181H57.9724V14.1016H57.0948ZM57.5336 14.9793H46.0936V15.8569H57.5336V14.9793ZM45.6548 15.4181V19.4991H46.5324V15.4181H45.6548ZM46.0936 19.0603H44.7771V19.9379H46.0936V19.0603ZM45.216 19.4991V10.2839H44.3383V19.4991H45.216ZM44.7771 10.7227H58.7842V9.8451H44.7771V10.7227ZM58.3454 10.2839V11.5872H59.223V10.2839H58.3454ZM62.3102 19.4991V19.9379H62.749V19.4991H62.3102ZM60.9937 19.4991H60.5549V19.9379H60.9937V19.4991ZM60.9937 10.2839V9.8451H60.5549V10.2839H60.9937ZM62.3102 10.2839H62.749V9.8451H62.3102V10.2839ZM62.3102 19.0603H60.9937V19.9379H62.3102V19.0603ZM61.4325 19.4991V10.2839H60.5549V19.4991H61.4325ZM60.9937 10.7227H62.3102V9.8451H60.9937V10.7227ZM61.8713 10.2839V19.4991H62.749V10.2839H61.8713ZM66.4929 19.4991V19.9379H66.9317V19.4991H66.4929ZM65.1896 19.4991H64.7508V19.9379H65.1896V19.4991ZM65.1896 10.2839V9.8451H64.7508V10.2839H65.1896ZM66.4139 10.2839L66.6521 9.9154L66.5434 9.8451H66.4139V10.2839ZM77.9197 17.7219L77.6815 18.0904L78.3585 18.5281V17.7219H77.9197ZM77.9197 10.2839V9.8451H77.4809V10.2839H77.9197ZM79.2362 10.2839H79.675V9.8451H79.2362V10.2839ZM79.2362 19.4991V19.9379H79.675V19.4991H79.2362ZM78.262 19.4991L78.024 19.8678L78.1327 19.9379H78.262V19.4991ZM66.4929 11.9032L66.7308 11.5345L66.0541 11.0977V11.9032H66.4929ZM66.4929 19.0603H65.1896V19.9379H66.4929V19.0603ZM65.6284 19.4991V10.2839H64.7508V19.4991H65.6284ZM65.1896 10.7227H66.4139V9.8451H65.1896V10.7227ZM66.1757 10.6524L77.6815 18.0904L78.1579 17.3534L66.6521 9.9154L66.1757 10.6524ZM78.3585 17.7219V10.2839H77.4809V17.7219H78.3585ZM77.9197 10.7227H79.2362V9.8451H77.9197V10.7227ZM78.7974 10.2839V19.4991H79.675V10.2839H78.7974ZM79.2362 19.0603H78.262V19.9379H79.2362V19.0603ZM78.5 19.1304L66.7308 11.5345L66.2549 12.2719L78.024 19.8678L78.5 19.1304ZM66.0541 11.9032V19.4991H66.9317V11.9032H66.0541ZM83.0216 18.13L83.3389 17.8269L83.3364 17.8243L83.0216 18.13ZM83.0216 11.653L83.3364 11.9587L83.3366 11.9585L83.0216 11.653ZM97.5684 11.653L97.2534 11.9585L97.2536 11.9587L97.5684 11.653ZM97.5684 18.13L97.2536 17.8243L97.2511 17.8269L97.5684 18.13ZM96.6206 17.2611L96.9342 17.5681L96.9371 17.565L96.6206 17.2611ZM96.6206 12.5219L96.9371 12.218L96.9342 12.215L96.6206 12.5219ZM83.9694 12.5219L83.6558 12.2149L83.6529 12.218L83.9694 12.5219ZM83.9694 17.2611L83.6529 17.565L83.6558 17.5681L83.9694 17.2611ZM94.3431 19.0603H86.2469V19.9379H94.3431V19.0603ZM86.2469 19.0603C85.1402 19.0603 84.0971 18.6206 83.3389 17.8269L82.7043 18.4331C83.6312 19.4035 84.905 19.9379 86.2469 19.9379V19.0603ZM83.3364 17.8243C81.7508 16.191 81.7508 13.592 83.3364 11.9587L82.7067 11.3474C80.7906 13.3212 80.7906 16.4619 82.7067 18.4357L83.3364 17.8243ZM83.3366 11.9585C84.0977 11.1737 85.143 10.7227 86.2469 10.7227V9.8451C84.9022 9.8451 83.6306 10.3947 82.7066 11.3476L83.3366 11.9585ZM86.2469 10.7227H94.3431V9.8451H86.2469V10.7227ZM94.3431 10.7227C95.447 10.7227 96.4923 11.1737 97.2534 11.9585L97.8835 11.3476C96.9595 10.3947 95.6878 9.8451 94.3431 9.8451V10.7227ZM97.2536 11.9587C98.8392 13.592 98.8392 16.191 97.2536 17.8243L97.8833 18.4357C99.7994 16.4619 99.7994 13.3212 97.8833 11.3474L97.2536 11.9587ZM97.2511 17.8269C96.493 18.6206 95.4499 19.0603 94.3431 19.0603V19.9379C95.685 19.9379 96.9588 19.4035 97.8857 18.4331L97.2511 17.8269ZM86.2469 18.661H94.3431V17.7833H86.2469V18.661ZM94.3431 18.661C95.3172 18.661 96.2463 18.2709 96.9342 17.5681L96.307 16.9542C95.7837 17.4889 95.0804 17.7833 94.3431 17.7833V18.661ZM96.9371 17.565C98.3639 16.0788 98.3639 13.7043 96.9371 12.218L96.304 12.8258C97.4048 13.9724 97.4048 15.8106 96.304 16.9572L96.9371 17.565ZM96.9342 12.215C96.2463 11.5122 95.3172 11.1221 94.3431 11.1221V11.9997C95.0804 11.9997 95.7837 12.2942 96.307 12.8288L96.9342 12.215ZM94.3431 11.1221H86.2469V11.9997H94.3431V11.1221ZM86.2469 11.1221C85.2728 11.1221 84.3437 11.5122 83.6558 12.215L84.2831 12.8288C84.8064 12.2942 85.5096 11.9997 86.2469 11.9997V11.1221ZM83.6529 12.218C82.2261 13.7043 82.2261 16.0788 83.6529 17.565L84.286 16.9572C83.1852 15.8106 83.1852 13.9724 84.286 12.8258L83.6529 12.218ZM83.6558 17.5681C84.3437 18.2709 85.2728 18.661 86.2469 18.661V17.7833C85.5096 17.7833 84.8064 17.4889 84.2831 16.9542L83.6558 17.5681ZM99.9569 10.2839V9.8451H99.2432L99.5653 10.482L99.9569 10.2839ZM101.418 10.2839L101.81 10.0856L101.688 9.8451H101.418V10.2839ZM104.92 17.1953L104.528 17.3936L104.903 18.1329L105.304 17.4076L104.92 17.1953ZM108.435 10.8368L108.819 10.6245L108.435 9.9298L108.051 10.6245L108.435 10.8368ZM111.95 17.1953L111.566 17.4076L111.967 18.1342L112.342 17.393L111.95 17.1953ZM115.438 10.2839V9.8451H115.168L115.047 10.0862L115.438 10.2839ZM116.913 10.2839L117.304 10.482L117.626 9.8451H116.913V10.2839ZM112.253 19.4991V19.9379H112.522L112.644 19.6971L112.253 19.4991ZM111.713 19.4991L111.328 19.7108L111.454 19.9379H111.713V19.4991ZM108.435 13.5487L108.819 13.337L108.436 12.6407L108.051 13.3363L108.435 13.5487ZM105.144 19.4991V19.9379H105.402L105.528 19.7115L105.144 19.4991ZM104.617 19.4991L104.226 19.6971L104.347 19.9379H104.617V19.4991ZM99.9569 10.7227H101.418V9.8451H99.9569V10.7227ZM101.027 10.4823L104.528 17.3936L105.311 16.997L101.81 10.0856L101.027 10.4823ZM105.304 17.4076L108.819 11.0491L108.051 10.6245L104.536 16.983L105.304 17.4076ZM108.051 11.0491L111.566 17.4076L112.334 16.983L108.819 10.6245L108.051 11.0491ZM112.342 17.393L115.83 10.4817L115.047 10.0862L111.558 16.9976L112.342 17.393ZM115.438 10.7227H116.913V9.8451H115.438V10.7227ZM116.521 10.0859L111.861 19.3011L112.644 19.6971L117.304 10.482L116.521 10.0859ZM112.253 19.0603H111.713V19.9379H112.253V19.0603ZM112.097 19.2874L108.819 13.337L108.05 13.7605L111.328 19.7108L112.097 19.2874ZM108.051 13.3363L104.76 19.2867L105.528 19.7115L108.819 13.7611L108.051 13.3363ZM105.144 19.0603H104.617V19.9379H105.144V19.0603ZM105.009 19.3011L100.348 10.0859L99.5653 10.482L104.226 19.6971L105.009 19.3011ZM119.008 10.2971V9.85827H118.569V10.2971H119.008ZM120.311 10.2971H120.75V9.85827H120.311V10.2971ZM120.311 18.1827H119.872V18.6215H120.311V18.1827ZM132.791 18.1827H133.23V17.7438H132.791V18.1827ZM132.791 19.4991V19.9379H133.23V19.4991H132.791ZM119.008 19.4991H118.569V19.9379H119.008V19.4991ZM119.008 10.7359H120.311V9.85827H119.008V10.7359ZM119.872 10.2971V18.1827H120.75V10.2971H119.872ZM120.311 18.6215H132.791V17.7438H120.311V18.6215ZM132.352 18.1827V19.4991H133.23V18.1827H132.352ZM132.791 19.0603H119.008V19.9379H132.791V19.0603ZM119.447 19.4991V10.2971H118.569V19.4991H119.447Z" fill="white" mask="url(#path-2-outside-1_360_2)"/>
</svg>
