<svg width="28" height="27" viewBox="0 0 28 27" fill="none" xmlns="http://www.w3.org/2000/svg">
<path d="M14.0324 0.138977C6.66876 0.138977 0.699219 6.10851 0.699219 13.4727C0.699219 20.8369 6.66876 26.8059 14.0324 26.8059C21.3961 26.8059 27.3661 20.8363 27.3661 13.4727C27.3661 6.10903 21.3966 0.138977 14.0324 0.138977ZM22.6498 7.11267C22.5711 7.7015 21.7182 7.99202 21.2977 8.24992C19.9595 9.07076 20.0413 10.2479 19.6182 11.5938C18.8906 13.9056 17.4872 16.3951 15.1505 17.3552C15.628 17.7296 15.9439 18.0771 16.28 18.5815C16.5203 18.942 17.0527 19.6494 16.8269 20.0512C16.5482 20.0129 16.323 19.8581 16.0433 19.8016C15.6357 19.7198 15.2209 19.7519 14.7973 19.6499C13.8367 19.4179 13.3421 18.711 13.0474 17.8171C12.7957 17.8073 12.5254 17.8415 12.2768 17.8197C11.8962 17.7866 11.1028 17.552 10.8231 17.567C10.7475 17.5711 10.2012 17.9394 9.97279 18.0025C9.54348 18.1216 9.12348 18.0807 8.70866 18.1367C8.52378 18.1615 7.90958 18.4614 7.96034 18.1175C7.99866 17.856 8.68277 17.1905 8.88319 16.9657C8.47873 16.7244 8.04164 16.5463 7.64547 16.2884C6.34042 15.4375 5.33419 14.0361 5.4155 12.409C5.43414 12.0325 5.48697 11.4654 5.9572 11.4494C7.429 11.5597 8.9184 11.1189 10.3022 11.7678C10.8925 12.0444 11.3566 12.5384 11.9371 12.8253C13.7015 13.6964 16.0381 13.2086 17.5053 11.9667C18.4504 11.1666 19.2505 9.7181 18.3598 8.57774C17.8517 7.92677 16.7088 7.86514 16.7559 6.89361C17.1143 6.96974 17.4447 7.19501 17.8207 7.20537C18.2122 7.21677 18.4488 7.05881 18.8901 7.16757C19.0941 7.21832 19.6374 7.54821 19.6814 7.54821C19.7648 7.54924 20.1899 7.28305 20.3298 7.23023C20.9636 6.99201 21.3816 7.31309 22.0279 7.11578C22.2309 7.05415 22.7078 6.6761 22.6498 7.11267Z" fill="#3164DD"/>
</svg>
