<svg width="19" height="19" viewBox="0 0 19 19" fill="none" xmlns="http://www.w3.org/2000/svg">
<path d="M18.4878 16.1927C18.3871 17.1892 17.004 17.2998 16.726 16.3444C16.6824 14.9129 16.5255 13.5334 16.1073 12.1634C14.5512 7.06176 9.96605 3.25468 4.63725 2.72275C4.14394 2.67324 3.57269 2.71432 3.09974 2.64937C2.82237 2.6111 2.5004 2.3418 2.4063 2.08162C2.20793 1.53038 2.53972 1.01882 3.07903 0.865732C3.36975 0.875563 3.66433 0.852039 3.9547 0.865732C11.3066 1.20701 17.5019 6.91079 18.3786 14.2356C18.4453 14.7914 18.5423 15.651 18.4878 16.1927Z" fill="#9D9D9D"/>
<path d="M4.49786 18.0329C3.25494 19.4928 0.7603 18.7302 0.55771 16.8412C0.542612 16.7022 0.542612 16.4195 0.55771 16.2805C0.64619 15.4547 1.33156 14.6657 2.11558 14.4231C4.27666 13.7546 5.96164 16.3135 4.49786 18.0329Z" fill="#9D9D9D"/>
<path d="M13.9518 16.4199C13.7672 16.9666 13.0555 17.1874 12.5871 16.8412C12.0867 16.4712 12.2381 15.8662 12.1844 15.3174C11.7567 10.9615 8.39623 7.59967 4.04212 7.17201C3.59446 7.12813 3.05059 7.22784 2.69351 6.94449C2.02149 6.41116 2.38278 5.41225 3.23527 5.34835C5.84542 5.15278 8.93343 6.63938 10.7617 8.41951C12.4983 10.1108 13.6383 12.3734 13.9304 14.7967C13.981 15.2145 14.0796 16.0428 13.9518 16.4199Z" fill="#9D9D9D"/>
<path d="M9.52259 16.1927C9.43903 17.014 8.37657 17.3159 7.89661 16.6288C7.6733 16.3089 7.74668 15.9294 7.70139 15.5628C7.46615 13.6517 5.96761 12.0384 4.066 11.7024C3.53161 11.6076 2.8789 11.7414 2.51866 11.2533C2.12752 10.7231 2.45827 9.937 3.10571 9.84361C4.45011 9.64909 6.32083 10.4872 7.33307 11.3418C8.5911 12.4035 9.69394 14.5099 9.52259 16.1927Z" fill="#9D9D9D"/>
</svg>
